<svg width="190" height="32" viewBox="0 0 190 32" fill="none" xmlns="http://www.w3.org/2000/svg">
<path d="M63.1751 16.1017C63.1751 19.5231 65.3856 21.9873 68.4275 21.9873C71.2058 21.9873 73.2947 20.0322 73.7408 17.0996H68.5289V15.7147H75.5863V23.2297H74.1667L74.0044 20.2563C72.7471 22.3132 70.6989 23.5351 68.1842 23.5351C64.3919 23.5351 61.5527 20.3581 61.5527 16.122C61.5527 11.8452 64.4324 8.68853 68.387 8.66816C71.652 8.6478 74.187 10.7658 75.0996 14.0243H73.4569C72.7066 11.6823 70.7597 10.1956 68.3667 10.1956C65.3247 10.1956 63.1751 12.6802 63.1751 16.1017Z" fill="black"/>
<path d="M79.9543 8.97365V23.2297H78.3319V8.97365H79.9543Z" fill="black"/>
<path d="M92.8598 23.2297H91.4605L91.2577 21.132C90.4465 22.6391 88.9864 23.5351 87.2626 23.5351C84.4843 23.5351 82.3752 21.2338 82.3752 18.1586C82.3752 15.0426 84.4843 12.7413 87.2626 12.7413C88.9864 12.7413 90.4263 13.6374 91.2375 15.1445L91.4605 13.0468H92.8598V23.2297ZM83.9976 18.1382C83.9976 20.3988 85.5591 22.0484 87.6885 22.0484C89.7773 22.0484 91.2375 20.4599 91.2375 18.1382C91.2375 15.8369 89.7773 14.2076 87.6885 14.2076C85.5186 14.2076 83.9976 15.8369 83.9976 18.1382Z" fill="black"/>
<path d="M96.8907 18.1382C96.8907 20.3988 98.4523 22.0484 100.582 22.0484C102.265 22.0484 103.603 21.0913 104.131 19.6453H105.814C105.145 21.9873 103.177 23.5351 100.582 23.5351C97.5397 23.5351 95.2684 21.2338 95.2684 18.1586C95.2684 15.0426 97.5194 12.7413 100.582 12.7413C103.157 12.7413 105.124 14.2687 105.794 16.6108H104.11C103.563 15.1852 102.245 14.2076 100.582 14.2076C98.4523 14.2076 96.8907 15.898 96.8907 18.1382Z" fill="black"/>
<path d="M108.279 9.54389C108.279 9.01438 108.623 8.66816 109.13 8.66816C109.658 8.66816 110.002 9.01438 110.002 9.54389C110.002 10.053 109.658 10.3993 109.13 10.3993C108.623 10.3993 108.279 10.053 108.279 9.54389ZM109.942 23.2297H108.319V13.0468H109.942V23.2297Z" fill="black"/>
<path d="M122.942 18.6066H114.161C114.343 20.7043 115.783 22.2317 117.71 22.2317C119.129 22.2317 120.285 21.4986 120.954 20.3377H122.617C121.786 22.3132 119.981 23.5351 117.71 23.5351C114.728 23.5351 112.518 21.2338 112.518 18.1586C112.518 15.0426 114.688 12.7413 117.71 12.7413C120.792 12.7413 122.962 14.9408 122.962 18.1586C122.962 18.3012 122.942 18.4437 122.942 18.6066ZM114.161 17.6698H121.319C121.137 15.5314 119.717 14.0854 117.71 14.0854C115.783 14.0854 114.343 15.5721 114.161 17.6698Z" fill="black"/>
<path d="M131.674 12.7413V14.452C128.835 14.452 127.01 16.7126 127.01 20.3377V23.2297H125.387V13.0468H126.787L127.01 16.2849C127.861 14.0854 129.545 12.7413 131.674 12.7413Z" fill="black"/>
<path d="M134.332 16.1017C134.332 19.5231 136.543 21.9873 139.585 21.9873C142.363 21.9873 144.452 20.0322 144.898 17.0996H139.686V15.7147H146.744V23.2297H145.324L145.162 20.2563C143.904 22.3132 141.856 23.5351 139.341 23.5351C135.549 23.5351 132.71 20.3581 132.71 16.122C132.71 11.8452 135.59 8.68853 139.544 8.66816C142.809 8.6478 145.344 10.7658 146.257 14.0243H144.614C143.864 11.6823 141.917 10.1956 139.524 10.1956C136.482 10.1956 134.332 12.6802 134.332 16.1017Z" fill="black"/>
<path d="M157.583 18.0771V13.0468H159.206V23.2297H157.806L157.603 21.2134C156.813 22.639 155.434 23.5351 153.791 23.5351C151.215 23.5351 149.39 21.2542 149.39 18.0771V13.0468H151.013V18.0771C151.013 20.4192 152.31 21.9873 154.278 21.9873C156.245 21.9873 157.583 20.3988 157.583 18.0771Z" fill="black"/>
<path d="M162.444 9.54389C162.444 9.01438 162.788 8.66816 163.295 8.66816C163.823 8.66816 164.167 9.01438 164.167 9.54389C164.167 10.053 163.823 10.3993 163.295 10.3993C162.788 10.3993 162.444 10.053 162.444 9.54389ZM164.107 23.2297H162.484V13.0468H164.107V23.2297Z" fill="black"/>
<path d="M177.107 23.2297H175.687L175.505 21.1727C174.673 22.6594 173.193 23.5351 171.489 23.5351C168.731 23.5351 166.663 21.2338 166.663 18.1586C166.663 15.0426 168.711 12.7413 171.489 12.7413C173.193 12.7413 174.653 13.617 175.484 15.0834V8.97365H177.107V23.2297ZM168.285 18.1382C168.285 20.3988 169.847 22.0484 171.915 22.0484C174.045 22.0484 175.484 20.4599 175.484 18.1382C175.484 15.8369 174.024 14.2076 171.915 14.2076C169.826 14.2076 168.285 15.8369 168.285 18.1382Z" fill="black"/>
<path d="M189.98 18.6066H181.199C181.381 20.7043 182.821 22.2317 184.748 22.2317C186.167 22.2317 187.323 21.4986 187.992 20.3377H189.655C188.824 22.3132 187.019 23.5351 184.748 23.5351C181.766 23.5351 179.556 21.2338 179.556 18.1586C179.556 15.0426 181.726 12.7413 184.748 12.7413C187.83 12.7413 190 14.9408 190 18.1586C190 18.3012 189.98 18.4437 189.98 18.6066ZM181.199 17.6698H188.357C188.175 15.5314 186.755 14.0854 184.748 14.0854C182.821 14.0854 181.381 15.5721 181.199 17.6698Z" fill="black"/>
<path d="M13.7827 32C4.39394 31.8174 0 25.7899 0 19.2146C0 12.6392 4.5066 6.42919 14.2334 6.42919H22.9837L15.9233 19.1415H25.3872V32H13.7827Z" fill="black"/>
<path d="M34.5882 0C43.9769 0.182649 48.3709 6.21005 48.3709 12.7854C48.3709 19.3608 43.8643 25.5708 34.1375 25.5708H25.3872L32.4476 12.8585H22.9837V0H34.5882Z" fill="black"/>
</svg>
