<svg width="180" height="180" viewBox="0 0 180 180" fill="none" xmlns="http://www.w3.org/2000/svg">
<mask id="mask0_73_1734" style="mask-type:alpha" maskUnits="userSpaceOnUse" x="0" y="0" width="180" height="180">
<rect width="180" height="180" rx="20" fill="#F9F9F9"/>
</mask>
<g mask="url(#mask0_73_1734)">
<path d="M51 129.5C51 163.466 37.7924 191 21.5 191C5.2076 191 -8 163.466 -8 129.5C-8 95.5345 5.2076 68 21.5 68C37.7924 68 51 95.5345 51 129.5ZM-4.58267 129.5C-4.58267 159.531 7.09494 183.876 21.5 183.876C35.9051 183.876 47.5827 159.531 47.5827 129.5C47.5827 99.4691 35.9051 75.1243 21.5 75.1243C7.09494 75.1243 -4.58267 99.4691 -4.58267 129.5Z" fill="#FF7566"/>
<path d="M78 129.5C78 163.466 64.7924 191 48.5 191C32.2076 191 19 163.466 19 129.5C19 95.5345 32.2076 68 48.5 68C64.7924 68 78 95.5345 78 129.5ZM22.4173 129.5C22.4173 159.531 34.0949 183.876 48.5 183.876C62.9051 183.876 74.5827 159.531 74.5827 129.5C74.5827 99.4691 62.9051 75.1243 48.5 75.1243C34.0949 75.1243 22.4173 99.4691 22.4173 129.5Z" fill="#A461DB"/>
<path d="M107 129.5C107 163.466 93.7924 191 77.5 191C61.2076 191 48 163.466 48 129.5C48 95.5345 61.2076 68 77.5 68C93.7924 68 107 95.5345 107 129.5ZM51.4173 129.5C51.4173 159.531 63.0949 183.876 77.5 183.876C91.9051 183.876 103.583 159.531 103.583 129.5C103.583 99.4691 91.9051 75.1243 77.5 75.1243C63.0949 75.1243 51.4173 99.4691 51.4173 129.5Z" fill="#FF7566"/>
<path d="M134 129.5C134 163.466 120.792 191 104.5 191C88.2076 191 75 163.466 75 129.5C75 95.5345 88.2076 68 104.5 68C120.792 68 134 95.5345 134 129.5ZM78.4173 129.5C78.4173 159.531 90.0949 183.876 104.5 183.876C118.905 183.876 130.583 159.531 130.583 129.5C130.583 99.4691 118.905 75.1243 104.5 75.1243C90.0949 75.1243 78.4173 99.4691 78.4173 129.5Z" fill="#A461DB"/>
<path d="M163 129.5C163 163.466 149.792 191 133.5 191C117.208 191 104 163.466 104 129.5C104 95.5345 117.208 68 133.5 68C149.792 68 163 95.5345 163 129.5ZM107.417 129.5C107.417 159.531 119.095 183.876 133.5 183.876C147.905 183.876 159.583 159.531 159.583 129.5C159.583 99.4691 147.905 75.1243 133.5 75.1243C119.095 75.1243 107.417 99.4691 107.417 129.5Z" fill="#FF7566"/>
<path d="M190 129.5C190 163.466 176.792 191 160.5 191C144.208 191 131 163.466 131 129.5C131 95.5345 144.208 68 160.5 68C176.792 68 190 95.5345 190 129.5ZM134.417 129.5C134.417 159.531 146.095 183.876 160.5 183.876C174.905 183.876 186.583 159.531 186.583 129.5C186.583 99.4691 174.905 75.1243 160.5 75.1243C146.095 75.1243 134.417 99.4691 134.417 129.5Z" fill="#A461DB"/>
</g>
</svg>